<mxfile host="app.diagrams.net" agent="Mozilla/5.0 (Windows NT 10.0; Win64; x64) AppleWebKit/537.36 (KHTML, like Gecko) Chrome/123.0.0.0 Safari/537.36" version="26.0.4">
  <diagram name="第 1 页" id="Yc1x8pzJkVuJ5B0Oh3OZ">
    <mxGraphModel dx="1434" dy="746" grid="1" gridSize="10" guides="1" tooltips="1" connect="1" arrows="1" fold="1" page="1" pageScale="1" pageWidth="827" pageHeight="1169" math="0" shadow="0">
      <root>
        <mxCell id="0" />
        <mxCell id="1" parent="0" />
        <mxCell id="5gU4maem9NHnRElxsLt7-1" value="开始" style="rounded=1;whiteSpace=wrap;html=1;" vertex="1" parent="1">
          <mxGeometry x="350" y="60" width="120" height="50" as="geometry" />
        </mxCell>
        <mxCell id="5gU4maem9NHnRElxsLt7-6" style="edgeStyle=orthogonalEdgeStyle;rounded=0;orthogonalLoop=1;jettySize=auto;html=1;exitX=0;exitY=0.5;exitDx=0;exitDy=0;entryX=0.5;entryY=0;entryDx=0;entryDy=0;" edge="1" parent="1" source="5gU4maem9NHnRElxsLt7-2" target="5gU4maem9NHnRElxsLt7-3">
          <mxGeometry relative="1" as="geometry" />
        </mxCell>
        <mxCell id="5gU4maem9NHnRElxsLt7-2" value="判断入库&lt;div&gt;还是出库&lt;/div&gt;" style="rhombus;whiteSpace=wrap;html=1;" vertex="1" parent="1">
          <mxGeometry x="330" y="150" width="150" height="70" as="geometry" />
        </mxCell>
        <mxCell id="5gU4maem9NHnRElxsLt7-3" value="查询调配记录" style="rounded=0;whiteSpace=wrap;html=1;" vertex="1" parent="1">
          <mxGeometry x="120" y="240" width="120" height="60" as="geometry" />
        </mxCell>
      </root>
    </mxGraphModel>
  </diagram>
</mxfile>
